<mxfile host="Electron" modified="2024-03-17T14:53:48.661Z" agent="Mozilla/5.0 (Windows NT 10.0; Win64; x64) AppleWebKit/537.36 (KHTML, like Gecko) draw.io/24.0.4 Chrome/120.0.6099.109 Electron/28.1.0 Safari/537.36" etag="dIDSXrGYLJvkK0lQnJ2p" version="24.0.4" type="device">
  <diagram name="Страница — 1" id="j6h9Y7CsDEzfFRnB7rzu">
    <mxGraphModel dx="3429" dy="1622" grid="1" gridSize="10" guides="1" tooltips="1" connect="1" arrows="1" fold="1" page="1" pageScale="1" pageWidth="827" pageHeight="1169" math="0" shadow="0">
      <root>
        <mxCell id="0" />
        <mxCell id="1" parent="0" />
        <mxCell id="J5jT1MHL9ttBjK06NssR-1" value="Customer" style="swimlane;childLayout=stackLayout;resizeParent=1;resizeParentMax=0;horizontal=0;startSize=20;horizontalStack=0;html=1;" parent="1" vertex="1">
          <mxGeometry width="1650" height="120" as="geometry" />
        </mxCell>
        <mxCell id="J5jT1MHL9ttBjK06NssR-6" value="The car insurer" style="swimlane;childLayout=stackLayout;resizeParent=1;resizeParentMax=0;horizontal=0;startSize=20;horizontalStack=0;html=1;" parent="1" vertex="1">
          <mxGeometry y="160" width="1650" height="560" as="geometry" />
        </mxCell>
        <mxCell id="J5jT1MHL9ttBjK06NssR-65" style="edgeStyle=orthogonalEdgeStyle;rounded=0;orthogonalLoop=1;jettySize=auto;html=1;entryX=0.5;entryY=0;entryDx=0;entryDy=0;" parent="J5jT1MHL9ttBjK06NssR-6" source="J5jT1MHL9ttBjK06NssR-55" target="J5jT1MHL9ttBjK06NssR-64" edge="1">
          <mxGeometry relative="1" as="geometry" />
        </mxCell>
        <mxCell id="J5jT1MHL9ttBjK06NssR-66" value="" style="edgeStyle=elbowEdgeStyle;fontSize=12;html=1;endFill=0;startFill=0;endSize=6;startSize=6;dashed=1;dashPattern=1 4;endArrow=openThin;startArrow=none;rounded=0;entryX=0;entryY=0.5;entryDx=0;entryDy=0;exitX=1.006;exitY=0.747;exitDx=0;exitDy=0;exitPerimeter=0;" parent="J5jT1MHL9ttBjK06NssR-6" source="J5jT1MHL9ttBjK06NssR-62" target="J5jT1MHL9ttBjK06NssR-64" edge="1">
          <mxGeometry width="160" relative="1" as="geometry">
            <mxPoint x="550" y="180" as="sourcePoint" />
            <mxPoint x="550" y="250" as="targetPoint" />
            <Array as="points">
              <mxPoint x="540" y="270" />
            </Array>
          </mxGeometry>
        </mxCell>
        <mxCell id="J5jT1MHL9ttBjK06NssR-57" style="edgeStyle=orthogonalEdgeStyle;rounded=0;orthogonalLoop=1;jettySize=auto;html=1;" parent="J5jT1MHL9ttBjK06NssR-6" source="J5jT1MHL9ttBjK06NssR-46" target="J5jT1MHL9ttBjK06NssR-70" edge="1">
          <mxGeometry relative="1" as="geometry">
            <mxPoint x="300" y="50" as="targetPoint" />
            <Array as="points">
              <mxPoint x="300" y="40" />
              <mxPoint x="1230" y="40" />
            </Array>
          </mxGeometry>
        </mxCell>
        <mxCell id="J5jT1MHL9ttBjK06NssR-61" value="Incomplete" style="edgeLabel;html=1;align=center;verticalAlign=middle;resizable=0;points=[];" parent="J5jT1MHL9ttBjK06NssR-57" vertex="1" connectable="0">
          <mxGeometry x="-0.21" relative="1" as="geometry">
            <mxPoint as="offset" />
          </mxGeometry>
        </mxCell>
        <mxCell id="J5jT1MHL9ttBjK06NssR-128" value="" style="edgeStyle=elbowEdgeStyle;fontSize=12;html=1;endFill=0;startFill=0;endSize=6;startSize=6;dashed=1;dashPattern=1 4;endArrow=openThin;startArrow=none;rounded=0;entryX=0.5;entryY=0;entryDx=0;entryDy=0;exitX=0.968;exitY=0.765;exitDx=0;exitDy=0;exitPerimeter=0;" parent="J5jT1MHL9ttBjK06NssR-6" source="J5jT1MHL9ttBjK06NssR-62" target="J5jT1MHL9ttBjK06NssR-86" edge="1">
          <mxGeometry width="160" relative="1" as="geometry">
            <mxPoint x="520" y="180" as="sourcePoint" />
            <mxPoint x="1281" y="470" as="targetPoint" />
            <Array as="points">
              <mxPoint x="1281" y="330" />
            </Array>
          </mxGeometry>
        </mxCell>
        <mxCell id="J5jT1MHL9ttBjK06NssR-7" value="Notification Department" style="swimlane;startSize=20;horizontal=0;html=1;" parent="J5jT1MHL9ttBjK06NssR-6" vertex="1">
          <mxGeometry x="20" width="1630" height="280" as="geometry">
            <mxRectangle x="20" width="780" height="30" as="alternateBounds" />
          </mxGeometry>
        </mxCell>
        <mxCell id="J5jT1MHL9ttBjK06NssR-41" value="Claim&lt;div&gt;documentation&lt;/div&gt;" style="shape=mxgraph.bpmn.data;labelPosition=center;verticalLabelPosition=bottom;align=center;verticalAlign=top;size=15;html=1;" parent="J5jT1MHL9ttBjK06NssR-7" vertex="1">
          <mxGeometry x="90" y="150" width="30" height="40" as="geometry" />
        </mxCell>
        <mxCell id="J5jT1MHL9ttBjK06NssR-47" style="edgeStyle=orthogonalEdgeStyle;rounded=0;orthogonalLoop=1;jettySize=auto;html=1;" parent="J5jT1MHL9ttBjK06NssR-7" source="J5jT1MHL9ttBjK06NssR-42" target="J5jT1MHL9ttBjK06NssR-46" edge="1">
          <mxGeometry relative="1" as="geometry" />
        </mxCell>
        <mxCell id="J5jT1MHL9ttBjK06NssR-42" value="Claim completeness" style="whiteSpace=wrap;html=1;verticalAlign=top;labelBackgroundColor=#ffffff;" parent="J5jT1MHL9ttBjK06NssR-7" vertex="1">
          <mxGeometry x="140" y="80" width="80" height="40" as="geometry" />
        </mxCell>
        <mxCell id="J5jT1MHL9ttBjK06NssR-43" style="edgeStyle=orthogonalEdgeStyle;rounded=0;orthogonalLoop=1;jettySize=auto;html=1;entryX=0;entryY=0.5;entryDx=0;entryDy=0;" parent="J5jT1MHL9ttBjK06NssR-7" target="J5jT1MHL9ttBjK06NssR-42" edge="1">
          <mxGeometry relative="1" as="geometry">
            <mxPoint x="80" y="100" as="sourcePoint" />
          </mxGeometry>
        </mxCell>
        <mxCell id="J5jT1MHL9ttBjK06NssR-46" value="" style="points=[[0.25,0.25,0],[0.5,0,0],[0.75,0.25,0],[1,0.5,0],[0.75,0.75,0],[0.5,1,0],[0.25,0.75,0],[0,0.5,0]];shape=mxgraph.bpmn.gateway2;html=1;verticalLabelPosition=bottom;labelBackgroundColor=#ffffff;verticalAlign=top;align=center;perimeter=rhombusPerimeter;outlineConnect=0;outline=none;symbol=none;gwType=exclusive;" parent="J5jT1MHL9ttBjK06NssR-7" vertex="1">
          <mxGeometry x="260" y="80" width="40" height="40" as="geometry" />
        </mxCell>
        <mxCell id="J5jT1MHL9ttBjK06NssR-50" value="" style="edgeStyle=elbowEdgeStyle;fontSize=12;html=1;endFill=0;startFill=0;endSize=6;startSize=6;dashed=1;dashPattern=1 4;endArrow=none;startArrow=none;rounded=0;entryX=0.348;entryY=-0.006;entryDx=0;entryDy=0;entryPerimeter=0;" parent="J5jT1MHL9ttBjK06NssR-7" target="J5jT1MHL9ttBjK06NssR-41" edge="1">
          <mxGeometry width="160" relative="1" as="geometry">
            <mxPoint x="100" y="100" as="sourcePoint" />
            <mxPoint x="330" y="160" as="targetPoint" />
            <Array as="points">
              <mxPoint x="100" y="120" />
            </Array>
          </mxGeometry>
        </mxCell>
        <mxCell id="J5jT1MHL9ttBjK06NssR-53" value="" style="edgeStyle=elbowEdgeStyle;fontSize=12;html=1;endFill=0;startFill=0;endSize=6;startSize=6;dashed=1;dashPattern=1 4;endArrow=openThin;startArrow=none;rounded=0;exitX=0.989;exitY=0.75;exitDx=0;exitDy=0;exitPerimeter=0;entryX=0.25;entryY=1;entryDx=0;entryDy=0;" parent="J5jT1MHL9ttBjK06NssR-7" source="J5jT1MHL9ttBjK06NssR-41" target="J5jT1MHL9ttBjK06NssR-55" edge="1">
          <mxGeometry width="160" relative="1" as="geometry">
            <mxPoint x="130" y="180" as="sourcePoint" />
            <mxPoint x="350" y="170" as="targetPoint" />
            <Array as="points">
              <mxPoint x="440" y="150" />
            </Array>
          </mxGeometry>
        </mxCell>
        <mxCell id="J5jT1MHL9ttBjK06NssR-55" value="Register&lt;div&gt;claim&lt;/div&gt;" style="whiteSpace=wrap;html=1;verticalAlign=top;labelBackgroundColor=#ffffff;" parent="J5jT1MHL9ttBjK06NssR-7" vertex="1">
          <mxGeometry x="420" y="80" width="80" height="40" as="geometry" />
        </mxCell>
        <mxCell id="J5jT1MHL9ttBjK06NssR-56" style="edgeStyle=orthogonalEdgeStyle;rounded=0;orthogonalLoop=1;jettySize=auto;html=1;entryX=-0.026;entryY=0.508;entryDx=0;entryDy=0;entryPerimeter=0;" parent="J5jT1MHL9ttBjK06NssR-7" source="J5jT1MHL9ttBjK06NssR-46" target="J5jT1MHL9ttBjK06NssR-55" edge="1">
          <mxGeometry relative="1" as="geometry" />
        </mxCell>
        <mxCell id="J5jT1MHL9ttBjK06NssR-58" value="Complete" style="edgeLabel;html=1;align=center;verticalAlign=middle;resizable=0;points=[];" parent="J5jT1MHL9ttBjK06NssR-56" vertex="1" connectable="0">
          <mxGeometry x="-0.3259" y="1" relative="1" as="geometry">
            <mxPoint x="20" y="1" as="offset" />
          </mxGeometry>
        </mxCell>
        <mxCell id="J5jT1MHL9ttBjK06NssR-62" value="Registered&lt;div&gt;claim&lt;/div&gt;" style="shape=mxgraph.bpmn.data;labelPosition=center;verticalLabelPosition=bottom;align=center;verticalAlign=top;size=15;html=1;" parent="J5jT1MHL9ttBjK06NssR-7" vertex="1">
          <mxGeometry x="470" y="150" width="30" height="40" as="geometry" />
        </mxCell>
        <mxCell id="J5jT1MHL9ttBjK06NssR-63" value="" style="edgeStyle=elbowEdgeStyle;fontSize=12;html=1;endFill=0;startFill=0;endSize=6;startSize=6;dashed=1;dashPattern=1 4;endArrow=openThin;startArrow=none;rounded=0;exitX=0.75;exitY=1;exitDx=0;exitDy=0;" parent="J5jT1MHL9ttBjK06NssR-7" source="J5jT1MHL9ttBjK06NssR-55" target="J5jT1MHL9ttBjK06NssR-62" edge="1">
          <mxGeometry width="160" relative="1" as="geometry">
            <mxPoint x="490" y="130" as="sourcePoint" />
            <mxPoint x="480" y="150" as="targetPoint" />
          </mxGeometry>
        </mxCell>
        <mxCell id="J5jT1MHL9ttBjK06NssR-130" value="" style="points=[[0.145,0.145,0],[0.5,0,0],[0.855,0.145,0],[1,0.5,0],[0.855,0.855,0],[0.5,1,0],[0.145,0.855,0],[0,0.5,0]];shape=mxgraph.bpmn.event;html=1;verticalLabelPosition=bottom;labelBackgroundColor=#ffffff;verticalAlign=top;align=center;perimeter=ellipsePerimeter;outlineConnect=0;aspect=fixed;outline=standard;symbol=message;" parent="J5jT1MHL9ttBjK06NssR-7" vertex="1">
          <mxGeometry x="40" y="80" width="40" height="40" as="geometry" />
        </mxCell>
        <mxCell id="J5jT1MHL9ttBjK06NssR-9" value="Handling Department" style="swimlane;startSize=20;horizontal=0;html=1;" parent="J5jT1MHL9ttBjK06NssR-6" vertex="1">
          <mxGeometry x="20" y="280" width="1630" height="280" as="geometry" />
        </mxCell>
        <mxCell id="J5jT1MHL9ttBjK06NssR-64" value="Cleck&lt;div&gt;insurance&lt;/div&gt;" style="whiteSpace=wrap;html=1;verticalAlign=top;labelBackgroundColor=#ffffff;" parent="J5jT1MHL9ttBjK06NssR-9" vertex="1">
          <mxGeometry x="540" y="120" width="80" height="40" as="geometry" />
        </mxCell>
        <mxCell id="J5jT1MHL9ttBjK06NssR-70" value="Reject&lt;div&gt;claim&lt;/div&gt;" style="whiteSpace=wrap;html=1;verticalAlign=top;labelBackgroundColor=#ffffff;" parent="J5jT1MHL9ttBjK06NssR-9" vertex="1">
          <mxGeometry x="1170" y="10" width="80" height="40" as="geometry" />
        </mxCell>
        <mxCell id="J5jT1MHL9ttBjK06NssR-74" style="edgeStyle=orthogonalEdgeStyle;rounded=0;orthogonalLoop=1;jettySize=auto;html=1;entryX=0;entryY=0.5;entryDx=0;entryDy=0;" parent="J5jT1MHL9ttBjK06NssR-9" source="J5jT1MHL9ttBjK06NssR-71" target="J5jT1MHL9ttBjK06NssR-70" edge="1">
          <mxGeometry relative="1" as="geometry">
            <Array as="points">
              <mxPoint x="720" y="30" />
            </Array>
          </mxGeometry>
        </mxCell>
        <mxCell id="J5jT1MHL9ttBjK06NssR-75" value="Not covered" style="edgeLabel;html=1;align=center;verticalAlign=middle;resizable=0;points=[];" parent="J5jT1MHL9ttBjK06NssR-74" vertex="1" connectable="0">
          <mxGeometry x="0.2581" relative="1" as="geometry">
            <mxPoint as="offset" />
          </mxGeometry>
        </mxCell>
        <mxCell id="J5jT1MHL9ttBjK06NssR-77" style="edgeStyle=orthogonalEdgeStyle;rounded=0;orthogonalLoop=1;jettySize=auto;html=1;entryX=0;entryY=0.5;entryDx=0;entryDy=0;" parent="J5jT1MHL9ttBjK06NssR-9" source="J5jT1MHL9ttBjK06NssR-71" target="J5jT1MHL9ttBjK06NssR-76" edge="1">
          <mxGeometry relative="1" as="geometry" />
        </mxCell>
        <mxCell id="J5jT1MHL9ttBjK06NssR-78" value="Covered" style="edgeLabel;html=1;align=center;verticalAlign=middle;resizable=0;points=[];" parent="J5jT1MHL9ttBjK06NssR-77" vertex="1" connectable="0">
          <mxGeometry x="-0.14" relative="1" as="geometry">
            <mxPoint as="offset" />
          </mxGeometry>
        </mxCell>
        <mxCell id="J5jT1MHL9ttBjK06NssR-71" value="" style="points=[[0.25,0.25,0],[0.5,0,0],[0.75,0.25,0],[1,0.5,0],[0.75,0.75,0],[0.5,1,0],[0.25,0.75,0],[0,0.5,0]];shape=mxgraph.bpmn.gateway2;html=1;verticalLabelPosition=bottom;labelBackgroundColor=#ffffff;verticalAlign=top;align=center;perimeter=rhombusPerimeter;outlineConnect=0;outline=none;symbol=none;gwType=exclusive;" parent="J5jT1MHL9ttBjK06NssR-9" vertex="1">
          <mxGeometry x="700" y="120" width="40" height="40" as="geometry" />
        </mxCell>
        <mxCell id="J5jT1MHL9ttBjK06NssR-72" style="edgeStyle=orthogonalEdgeStyle;rounded=0;orthogonalLoop=1;jettySize=auto;html=1;entryX=0;entryY=0.5;entryDx=0;entryDy=0;entryPerimeter=0;" parent="J5jT1MHL9ttBjK06NssR-9" source="J5jT1MHL9ttBjK06NssR-64" target="J5jT1MHL9ttBjK06NssR-71" edge="1">
          <mxGeometry relative="1" as="geometry" />
        </mxCell>
        <mxCell id="J5jT1MHL9ttBjK06NssR-73" value="Covered" style="edgeLabel;html=1;align=center;verticalAlign=middle;resizable=0;points=[];" parent="J5jT1MHL9ttBjK06NssR-72" vertex="1" connectable="0">
          <mxGeometry x="-0.16" y="-1" relative="1" as="geometry">
            <mxPoint x="6" as="offset" />
          </mxGeometry>
        </mxCell>
        <mxCell id="J5jT1MHL9ttBjK06NssR-76" value="Assess&lt;div&gt;claim&lt;/div&gt;" style="whiteSpace=wrap;html=1;verticalAlign=top;labelBackgroundColor=#ffffff;" parent="J5jT1MHL9ttBjK06NssR-9" vertex="1">
          <mxGeometry x="820" y="120" width="80" height="40" as="geometry" />
        </mxCell>
        <mxCell id="J5jT1MHL9ttBjK06NssR-81" style="edgeStyle=orthogonalEdgeStyle;rounded=0;orthogonalLoop=1;jettySize=auto;html=1;entryX=0.5;entryY=1;entryDx=0;entryDy=0;" parent="J5jT1MHL9ttBjK06NssR-9" source="J5jT1MHL9ttBjK06NssR-79" target="J5jT1MHL9ttBjK06NssR-70" edge="1">
          <mxGeometry relative="1" as="geometry">
            <Array as="points">
              <mxPoint x="1000" y="80" />
              <mxPoint x="1210" y="80" />
            </Array>
          </mxGeometry>
        </mxCell>
        <mxCell id="J5jT1MHL9ttBjK06NssR-82" value="Claim rejected" style="edgeLabel;html=1;align=center;verticalAlign=middle;resizable=0;points=[];" parent="J5jT1MHL9ttBjK06NssR-81" vertex="1" connectable="0">
          <mxGeometry y="1" relative="1" as="geometry">
            <mxPoint as="offset" />
          </mxGeometry>
        </mxCell>
        <mxCell id="J5jT1MHL9ttBjK06NssR-84" style="edgeStyle=orthogonalEdgeStyle;rounded=0;orthogonalLoop=1;jettySize=auto;html=1;entryX=0;entryY=0.5;entryDx=0;entryDy=0;" parent="J5jT1MHL9ttBjK06NssR-9" source="J5jT1MHL9ttBjK06NssR-79" target="J5jT1MHL9ttBjK06NssR-83" edge="1">
          <mxGeometry relative="1" as="geometry">
            <Array as="points">
              <mxPoint x="1000" y="220" />
            </Array>
          </mxGeometry>
        </mxCell>
        <mxCell id="J5jT1MHL9ttBjK06NssR-85" value="Claim&lt;div&gt;approved&lt;/div&gt;" style="edgeLabel;html=1;align=center;verticalAlign=middle;resizable=0;points=[];" parent="J5jT1MHL9ttBjK06NssR-84" vertex="1" connectable="0">
          <mxGeometry x="-0.4987" relative="1" as="geometry">
            <mxPoint as="offset" />
          </mxGeometry>
        </mxCell>
        <mxCell id="J5jT1MHL9ttBjK06NssR-79" value="" style="points=[[0.25,0.25,0],[0.5,0,0],[0.75,0.25,0],[1,0.5,0],[0.75,0.75,0],[0.5,1,0],[0.25,0.75,0],[0,0.5,0]];shape=mxgraph.bpmn.gateway2;html=1;verticalLabelPosition=bottom;labelBackgroundColor=#ffffff;verticalAlign=top;align=center;perimeter=rhombusPerimeter;outlineConnect=0;outline=none;symbol=none;gwType=exclusive;" parent="J5jT1MHL9ttBjK06NssR-9" vertex="1">
          <mxGeometry x="980" y="120" width="40" height="40" as="geometry" />
        </mxCell>
        <mxCell id="J5jT1MHL9ttBjK06NssR-80" style="edgeStyle=orthogonalEdgeStyle;rounded=0;orthogonalLoop=1;jettySize=auto;html=1;entryX=0;entryY=0.5;entryDx=0;entryDy=0;entryPerimeter=0;" parent="J5jT1MHL9ttBjK06NssR-9" source="J5jT1MHL9ttBjK06NssR-76" target="J5jT1MHL9ttBjK06NssR-79" edge="1">
          <mxGeometry relative="1" as="geometry" />
        </mxCell>
        <mxCell id="J5jT1MHL9ttBjK06NssR-87" style="edgeStyle=orthogonalEdgeStyle;rounded=0;orthogonalLoop=1;jettySize=auto;html=1;entryX=0;entryY=0.5;entryDx=0;entryDy=0;" parent="J5jT1MHL9ttBjK06NssR-9" source="J5jT1MHL9ttBjK06NssR-83" target="J5jT1MHL9ttBjK06NssR-86" edge="1">
          <mxGeometry relative="1" as="geometry" />
        </mxCell>
        <mxCell id="J5jT1MHL9ttBjK06NssR-83" value="Authorise&lt;div&gt;repair&lt;/div&gt;" style="whiteSpace=wrap;html=1;verticalAlign=top;labelBackgroundColor=#ffffff;" parent="J5jT1MHL9ttBjK06NssR-9" vertex="1">
          <mxGeometry x="1060" y="200" width="80" height="40" as="geometry" />
        </mxCell>
        <mxCell id="J5jT1MHL9ttBjK06NssR-86" value="Schedule&lt;div&gt;payment&lt;/div&gt;" style="whiteSpace=wrap;html=1;verticalAlign=top;labelBackgroundColor=#ffffff;" parent="J5jT1MHL9ttBjK06NssR-9" vertex="1">
          <mxGeometry x="1221" y="200" width="80" height="40" as="geometry" />
        </mxCell>
        <mxCell id="J5jT1MHL9ttBjK06NssR-123" style="edgeStyle=orthogonalEdgeStyle;rounded=0;orthogonalLoop=1;jettySize=auto;html=1;" parent="J5jT1MHL9ttBjK06NssR-9" source="J5jT1MHL9ttBjK06NssR-116" target="J5jT1MHL9ttBjK06NssR-119" edge="1">
          <mxGeometry relative="1" as="geometry" />
        </mxCell>
        <mxCell id="J5jT1MHL9ttBjK06NssR-116" value="" style="points=[[0.25,0.25,0],[0.5,0,0],[0.75,0.25,0],[1,0.5,0],[0.75,0.75,0],[0.5,1,0],[0.25,0.75,0],[0,0.5,0]];shape=mxgraph.bpmn.gateway2;html=1;verticalLabelPosition=bottom;labelBackgroundColor=#ffffff;verticalAlign=top;align=center;perimeter=rhombusPerimeter;outlineConnect=0;outline=none;symbol=none;gwType=exclusive;" parent="J5jT1MHL9ttBjK06NssR-9" vertex="1">
          <mxGeometry x="1340" y="120" width="40" height="40" as="geometry" />
        </mxCell>
        <mxCell id="J5jT1MHL9ttBjK06NssR-117" style="edgeStyle=orthogonalEdgeStyle;rounded=0;orthogonalLoop=1;jettySize=auto;html=1;entryX=0.5;entryY=1;entryDx=0;entryDy=0;entryPerimeter=0;" parent="J5jT1MHL9ttBjK06NssR-9" source="J5jT1MHL9ttBjK06NssR-86" target="J5jT1MHL9ttBjK06NssR-116" edge="1">
          <mxGeometry relative="1" as="geometry" />
        </mxCell>
        <mxCell id="J5jT1MHL9ttBjK06NssR-118" style="edgeStyle=orthogonalEdgeStyle;rounded=0;orthogonalLoop=1;jettySize=auto;html=1;entryX=0.5;entryY=0;entryDx=0;entryDy=0;entryPerimeter=0;" parent="J5jT1MHL9ttBjK06NssR-9" source="J5jT1MHL9ttBjK06NssR-70" target="J5jT1MHL9ttBjK06NssR-116" edge="1">
          <mxGeometry relative="1" as="geometry" />
        </mxCell>
        <mxCell id="J5jT1MHL9ttBjK06NssR-127" style="edgeStyle=orthogonalEdgeStyle;rounded=0;orthogonalLoop=1;jettySize=auto;html=1;" parent="J5jT1MHL9ttBjK06NssR-9" source="J5jT1MHL9ttBjK06NssR-119" target="J5jT1MHL9ttBjK06NssR-126" edge="1">
          <mxGeometry relative="1" as="geometry" />
        </mxCell>
        <mxCell id="J5jT1MHL9ttBjK06NssR-119" value="Notify&lt;div&gt;customer&lt;/div&gt;" style="whiteSpace=wrap;html=1;verticalAlign=top;labelBackgroundColor=#ffffff;" parent="J5jT1MHL9ttBjK06NssR-9" vertex="1">
          <mxGeometry x="1420" y="120" width="80" height="40" as="geometry" />
        </mxCell>
        <mxCell id="J5jT1MHL9ttBjK06NssR-121" value="" style="dashed=1;dashPattern=8 4;endArrow=blockThin;endFill=1;startArrow=oval;startFill=0;endSize=6;startSize=4;html=1;rounded=0;" parent="J5jT1MHL9ttBjK06NssR-9" edge="1">
          <mxGeometry width="160" relative="1" as="geometry">
            <mxPoint x="780" y="200" as="sourcePoint" />
            <mxPoint x="820" y="200" as="targetPoint" />
          </mxGeometry>
        </mxCell>
        <mxCell id="J5jT1MHL9ttBjK06NssR-126" value="Customer&lt;div&gt;notified&lt;/div&gt;" style="points=[[0.145,0.145,0],[0.5,0,0],[0.855,0.145,0],[1,0.5,0],[0.855,0.855,0],[0.5,1,0],[0.145,0.855,0],[0,0.5,0]];shape=mxgraph.bpmn.event;html=1;verticalLabelPosition=bottom;labelBackgroundColor=#ffffff;verticalAlign=top;align=center;perimeter=ellipsePerimeter;outlineConnect=0;aspect=fixed;outline=end;symbol=terminate2;" parent="J5jT1MHL9ttBjK06NssR-9" vertex="1">
          <mxGeometry x="1540" y="120" width="40" height="40" as="geometry" />
        </mxCell>
        <mxCell id="J5jT1MHL9ttBjK06NssR-109" value="" style="edgeStyle=elbowEdgeStyle;fontSize=12;html=1;endFill=0;startFill=0;endSize=6;startSize=6;dashed=1;dashPattern=1 4;endArrow=openThin;startArrow=none;rounded=0;entryX=0.5;entryY=0;entryDx=0;entryDy=0;exitX=1;exitY=0.752;exitDx=0;exitDy=0;exitPerimeter=0;" parent="J5jT1MHL9ttBjK06NssR-6" source="J5jT1MHL9ttBjK06NssR-62" target="J5jT1MHL9ttBjK06NssR-83" edge="1">
          <mxGeometry width="160" relative="1" as="geometry">
            <mxPoint x="530" y="190" as="sourcePoint" />
            <mxPoint x="891" y="406" as="targetPoint" />
            <Array as="points">
              <mxPoint x="1120" y="330" />
            </Array>
          </mxGeometry>
        </mxCell>
        <mxCell id="J5jT1MHL9ttBjK06NssR-108" value="" style="edgeStyle=elbowEdgeStyle;fontSize=12;html=1;endFill=0;startFill=0;endSize=6;startSize=6;dashed=1;dashPattern=1 4;endArrow=openThin;startArrow=none;rounded=0;entryX=0.509;entryY=-0.096;entryDx=0;entryDy=0;entryPerimeter=0;exitX=1;exitY=0.75;exitDx=0;exitDy=0;exitPerimeter=0;" parent="J5jT1MHL9ttBjK06NssR-6" source="J5jT1MHL9ttBjK06NssR-62" target="J5jT1MHL9ttBjK06NssR-76" edge="1">
          <mxGeometry width="160" relative="1" as="geometry">
            <mxPoint x="550" y="170" as="sourcePoint" />
            <mxPoint x="1220" y="300" as="targetPoint" />
            <Array as="points">
              <mxPoint x="881" y="310" />
            </Array>
          </mxGeometry>
        </mxCell>
        <mxCell id="J5jT1MHL9ttBjK06NssR-89" value="" style="edgeStyle=elbowEdgeStyle;fontSize=12;html=1;endFill=0;startFill=0;endSize=6;startSize=6;dashed=1;dashPattern=1 4;endArrow=openThin;startArrow=none;rounded=0;entryX=0.25;entryY=0;entryDx=0;entryDy=0;exitX=1;exitY=0.75;exitDx=0;exitDy=0;exitPerimeter=0;" parent="J5jT1MHL9ttBjK06NssR-6" source="J5jT1MHL9ttBjK06NssR-62" target="J5jT1MHL9ttBjK06NssR-70" edge="1">
          <mxGeometry width="160" relative="1" as="geometry">
            <mxPoint x="520" y="180" as="sourcePoint" />
            <mxPoint x="700" y="169.9" as="targetPoint" />
            <Array as="points">
              <mxPoint x="1210" y="240" />
            </Array>
          </mxGeometry>
        </mxCell>
        <mxCell id="J5jT1MHL9ttBjK06NssR-129" value="" style="edgeStyle=elbowEdgeStyle;fontSize=12;html=1;endFill=0;startFill=0;endSize=6;startSize=6;dashed=1;dashPattern=1 4;endArrow=openThin;startArrow=none;rounded=0;exitX=0.991;exitY=0.758;exitDx=0;exitDy=0;exitPerimeter=0;" parent="J5jT1MHL9ttBjK06NssR-6" source="J5jT1MHL9ttBjK06NssR-62" target="J5jT1MHL9ttBjK06NssR-119" edge="1">
          <mxGeometry width="160" relative="1" as="geometry">
            <mxPoint x="529" y="191" as="sourcePoint" />
            <mxPoint x="1460" y="400" as="targetPoint" />
            <Array as="points">
              <mxPoint x="1460" y="180" />
            </Array>
          </mxGeometry>
        </mxCell>
        <mxCell id="J5jT1MHL9ttBjK06NssR-20" value="Garage" style="swimlane;childLayout=stackLayout;resizeParent=1;resizeParentMax=0;horizontal=0;startSize=20;horizontalStack=0;html=1;" parent="1" vertex="1">
          <mxGeometry y="760" width="1650" height="120" as="geometry" />
        </mxCell>
        <mxCell id="J5jT1MHL9ttBjK06NssR-25" value="" style="edgeStyle=elbowEdgeStyle;fontSize=12;html=1;endFill=0;startFill=0;endSize=6;startSize=6;dashed=1;dashPattern=1 4;endArrow=openThin;startArrow=none;rounded=0;entryX=0.5;entryY=0;entryDx=0;entryDy=0;entryPerimeter=0;" parent="1" target="J5jT1MHL9ttBjK06NssR-130" edge="1">
          <mxGeometry width="160" relative="1" as="geometry">
            <mxPoint x="80" y="120" as="sourcePoint" />
            <mxPoint x="80" y="240" as="targetPoint" />
          </mxGeometry>
        </mxCell>
        <mxCell id="J5jT1MHL9ttBjK06NssR-113" value="" style="edgeStyle=elbowEdgeStyle;fontSize=12;html=1;endFill=0;startFill=0;endSize=6;startSize=6;dashed=1;dashPattern=1 4;endArrow=openThin;startArrow=none;rounded=0;exitX=0.5;exitY=1;exitDx=0;exitDy=0;" parent="1" source="J5jT1MHL9ttBjK06NssR-83" edge="1">
          <mxGeometry width="160" relative="1" as="geometry">
            <mxPoint x="890" y="810" as="sourcePoint" />
            <mxPoint x="1120" y="760" as="targetPoint" />
          </mxGeometry>
        </mxCell>
        <mxCell id="J5jT1MHL9ttBjK06NssR-115" value="Authorisation" style="edgeLabel;html=1;align=center;verticalAlign=middle;resizable=0;points=[];" parent="J5jT1MHL9ttBjK06NssR-113" vertex="1" connectable="0">
          <mxGeometry x="0.5105" relative="1" as="geometry">
            <mxPoint as="offset" />
          </mxGeometry>
        </mxCell>
        <mxCell id="J5jT1MHL9ttBjK06NssR-125" value="" style="edgeStyle=elbowEdgeStyle;fontSize=12;html=1;endFill=0;startFill=0;endSize=6;startSize=6;dashed=1;dashPattern=1 4;endArrow=openThin;startArrow=none;rounded=0;exitX=0.5;exitY=0;exitDx=0;exitDy=0;" parent="1" source="J5jT1MHL9ttBjK06NssR-119" edge="1">
          <mxGeometry width="160" relative="1" as="geometry">
            <mxPoint x="1520" y="130" as="sourcePoint" />
            <mxPoint x="1480" y="120" as="targetPoint" />
            <Array as="points">
              <mxPoint x="1480" y="340" />
            </Array>
          </mxGeometry>
        </mxCell>
      </root>
    </mxGraphModel>
  </diagram>
</mxfile>
